<svg xmlns="http://www.w3.org/2000/svg" viewBox="0 0 480 480"><defs><style>.cls-1{fill:#51ace0;}</style></defs><title>Asset 1</title><g id="Layer_2" data-name="Layer 2"><g id="Layer_1-2" data-name="Layer 1"><path class="cls-1" d="M240,0C107.66,0,0,107.66,0,240S107.66,480,240,480,480,372.34,480,240,372.34,0,240,0Zm0,460C118.69,460,20,361.31,20,240S118.69,20,240,20s220,98.69,220,220S361.31,460,240,460Z"/><path class="cls-1" d="M410,195H382.94a147.32,147.32,0,0,0-10-24.27l19.16-19.16a20,20,0,0,0,0-28.24l-35.4-35.4a19.94,19.94,0,0,0-28.24,0l-19.16,19.16a147.32,147.32,0,0,0-24.27-10V70a20,20,0,0,0-20-20H215a20,20,0,0,0-20,20V97.06a147.32,147.32,0,0,0-24.27,10L151.57,87.93a20,20,0,0,0-28.24,0l-35.4,35.4a19.94,19.94,0,0,0,0,28.24l19.16,19.16a147.32,147.32,0,0,0-10,24.27H70a20,20,0,0,0-20,20v50a20,20,0,0,0,20,20H97.06a147.32,147.32,0,0,0,10,24.27L87.93,328.43a19.94,19.94,0,0,0,0,28.24l35.4,35.4a20,20,0,0,0,28.24,0l19.16-19.16a147.32,147.32,0,0,0,24.27,10V410a20,20,0,0,0,20,20h50a20,20,0,0,0,20-20V382.94a147.32,147.32,0,0,0,24.27-10l19.16,19.16a20,20,0,0,0,28.24,0l35.4-35.4a20,20,0,0,0,0-28.24l-19.16-19.16a147.32,147.32,0,0,0,10-24.27H410a20,20,0,0,0,20-20V215A20,20,0,0,0,410,195Zm0,70H375.4a10,10,0,0,0-9.68,7.5,128,128,0,0,1-13.81,33.39,10,10,0,0,0,1.52,12.18l24.5,24.46-35.36,35.4-24.5-24.5a10,10,0,0,0-12.18-1.53,127.52,127.52,0,0,1-33.39,13.82,10,10,0,0,0-7.5,9.68V410H215V375.4a10,10,0,0,0-7.5-9.68,127.52,127.52,0,0,1-33.39-13.82,10,10,0,0,0-12.18,1.53l-24.46,24.5-35.4-35.36,24.5-24.5a10,10,0,0,0,1.53-12.18,127.45,127.45,0,0,1-13.82-33.38A10,10,0,0,0,104.6,265H70V215h34.6a10,10,0,0,0,9.68-7.5,128,128,0,0,1,13.81-33.39,10,10,0,0,0-1.52-12.18l-24.5-24.46,35.36-35.4,24.5,24.5a10,10,0,0,0,12.18,1.53,127.59,127.59,0,0,1,33.38-13.82A10,10,0,0,0,215,104.6V70h50v34.6a10,10,0,0,0,7.5,9.68,128,128,0,0,1,33.39,13.81,10,10,0,0,0,12.18-1.52l24.46-24.5,35.4,35.36-24.5,24.5a10,10,0,0,0-1.53,12.18,127.59,127.59,0,0,1,13.82,33.38A10,10,0,0,0,375.4,215H410Z"/><path class="cls-1" d="M331.58,292.48l-40-35-13.17,15,20,17.47H240a50.06,50.06,0,0,1-50-50H170a70.08,70.08,0,0,0,70,70h58.39l-20,17.48,13.17,15,40-35a10,10,0,0,0,0-15Z"/><path class="cls-1" d="M201.59,207.47l-20-17.47H240a50.06,50.06,0,0,1,50,50h20a70.08,70.08,0,0,0-70-70H181.61l20-17.48-13.17-15.05-40,35a10,10,0,0,0,0,15.05l40,35Z"/></g></g></svg>